# xmcd
#
# Track frame offsets:
#	150
#	13158
#	31366
#	44122
#	64693
#	77825
#	95379
#	107745
#	125007
#	138182
#
# Disc length: 2126 seconds
#
# Revision: 0
# Processed by: cddbd v1.5.1PL2 Copyright (c) Steve Scherf et al.
# Submitted via: EasyCDDAExtractor 9.0.0.1
#
DISCID=87084c0a
DTITLE=Zerrin Özer - Kirmizi
DYEAR=1900
DGENRE=Pop
TTITLE0=Kurulsam Gönül
TTITLE1=Bu Sehirde
TTITLE2=Ben Buyum Iste
TTITLE3=Bir Gülü Sevdim
TTITLE4=Intuv Ene
TTITLE5=Aglamayacaksin
TTITLE6=Bir Düsmeye Gör
TTITLE7=Seninle Basim Dertte
TTITLE8=Sen Yoksan Yanimda
TTITLE9=Merhaba Ve Habeyip
EXTD=
EXTT0=
EXTT1=
EXTT2=
EXTT3=
EXTT4=
EXTT5=
EXTT6=
EXTT7=
EXTT8=
EXTT9=
PLAYORDER=
